<?xml version="1.0" encoding="UTF-8"?> <!-- Generator: Adobe Illustrator 23.0.4, SVG Export Plug-In . SVG Version: 6.00 Build 0) --> <svg xmlns="http://www.w3.org/2000/svg" xmlns:xlink="http://www.w3.org/1999/xlink" version="1.0" id="Layer_1" x="0px" y="0px" viewBox="0 0 207 21" xml:space="preserve" width="200" height="20"> <g> <g> <path fill="#DEA937" d="M12.675,0.698c-2.146,0.589-3.907,2.453-4.324,4.547l-1.768,8.88H0.646l1.492-7.491 c0.283-1.586,1.195-3.124,2.545-4.236C6.019,1.27,7.677,0.665,9.256,0.698H12.675z"></path> <path fill="#BA8B27" d="M16.747,0.698l-1.182,5.937H8.074l0.277-1.39c0.417-2.094,2.178-3.958,4.324-4.547H16.747z"></path> <path fill="#113F6E" d="M9.531,20.063c2.146-0.589,3.907-2.453,4.324-4.547l1.768-8.88h5.937l-1.491,7.491 c-0.282,1.586-1.194,3.124-2.544,4.236c-1.336,1.129-2.995,1.735-4.575,1.701H9.531z"></path> <path fill="#173053" d="M5.458,20.063l1.182-5.937h7.491l-0.277,1.39c-0.417,2.094-2.178,3.958-4.324,4.547H5.458z"></path> </g> <g> <path fill="#113F6E" d="M25.869,2.714c0.091-0.555,0.418-1.037,0.984-1.444c0.566-0.407,1.187-0.611,1.866-0.611h4.682 l1.561,14.712L42.765,0.66h7.193l-4.139,19.32h-4.546l3.325-15.601L36.455,19.98h-4.954L30.008,4.379L26.683,19.98h-4.546 L25.869,2.714z"></path> <path fill="#113F6E" d="M64.26,13.984c-0.543,2.591-1.719,4.293-3.528,5.108c-1.809,0.777-3.709,1.166-5.7,1.166 c-1.9,0-3.551-0.425-4.954-1.277c-1.402-0.814-1.832-2.48-1.289-4.997l1.968-9.049h4.614l-2.104,9.826 c-0.362,1.666,0.498,2.498,2.579,2.498c2.081,0,3.302-0.833,3.664-2.498l1.696-7.939c0.226-1.258,1.108-1.888,2.647-1.888h2.375 L64.26,13.984z"></path> <path fill="#113F6E" d="M71.369,0.66c0.588,0,1.063,0.167,1.425,0.5c0.407,0.37,0.565,0.814,0.475,1.332l-3.8,17.488h-4.614 l4.139-19.32H71.369z"></path> <path fill="#113F6E" d="M74.339,20.008c-1.719-0.129-2.375-1.027-1.968-2.693L75.967,0.66h2.375c0.588,0,1.075,0.185,1.459,0.555 c0.385,0.37,0.509,0.814,0.373,1.332l-0.475,2.387h2.782l-0.204,0.833c-0.136,0.555-0.463,1.009-0.984,1.36 c-0.52,0.352-1.097,0.527-1.73,0.527h-0.475l-1.832,8.55c-0.136,0.629,0.249,0.944,1.154,0.944h1.425l-0.611,2.887 C77.686,20.147,76.058,20.137,74.339,20.008z"></path> <path fill="#113F6E" d="M87.351,4.935c1.493,0,2.103,0.611,1.832,1.832l-2.85,13.213h-4.614l3.257-15.045H87.351z M88.233,0.66 c1.538,0,2.171,0.611,1.9,1.832l-0.272,1.111h-4.614l0.611-2.943H88.233z"></path> <path fill="#DEA937" d="M105.249,15.372c-0.814,1.666-1.968,2.887-3.461,3.664c-1.628,0.888-3.438,1.314-5.428,1.277 c-5.564,0-7.849-2.591-6.853-7.773c1.086-5.144,4.456-7.754,10.11-7.828c4.433,0,6.718,1.629,6.854,4.886h-5.022 c-0.317-1.036-1.199-1.554-2.647-1.554c-2.443,0-3.992,1.499-4.648,4.497s0.328,4.478,2.952,4.441 c1.086,0,2.081-0.352,2.986-1.055c0.543-0.37,1.108-0.555,1.696-0.555H105.249z"></path> <path fill="#DEA937" d="M107.812,12.207c1.176-4.848,4.841-7.273,10.993-7.273h0.679l-0.882,3.942h-1.561 c-2.579,0-4.094,1.092-4.546,3.276l-1.696,7.828h-4.682L107.812,12.207z"></path> <path fill="#DEA937" d="M134.735,15.372c-0.905,1.703-2.058,2.942-3.461,3.72c-1.674,0.814-3.528,1.221-5.564,1.221 c-5.564-0.148-7.792-2.776-6.684-7.884c1.109-5.107,4.467-7.68,10.077-7.717c5.836,0,7.939,2.942,6.311,8.828h-11.875 c-0.317,2.295,0.656,3.442,2.918,3.442c1.086,0,2.171-0.352,3.257-1.055c0.452-0.37,0.995-0.555,1.629-0.555H134.735z M131.138,10.82c0.136-1.999-0.792-2.998-2.782-2.998c-1.99,0-3.37,0.999-4.139,2.998H131.138z M129.985,3.88h-2.307l1.696-2.61 c0.272-0.444,0.769-0.648,1.493-0.611h2.986L129.985,3.88z"></path> <path fill="#DEA937" d="M154.126,0.66c0.633,0,1.131,0.185,1.493,0.555s0.498,0.814,0.407,1.332l-0.475,2.054l-1.9,8.883 c-0.95,4.515-4.297,6.755-10.043,6.717c-5.7-0.074-8.007-2.609-6.921-7.606c1.086-5.108,4.094-7.736,9.025-7.884 c2.307,0,3.891,0.777,4.75,2.332l1.357-6.385H154.126z M146.322,8.099c-2.488,0-4.094,1.443-4.818,4.33 c-0.724,3.035,0.226,4.552,2.85,4.552c2.624,0,4.275-1.517,4.954-4.552C149.806,9.543,148.811,8.099,146.322,8.099z"></path> <path fill="#DEA937" d="M160.217,4.935c1.493,0,2.103,0.611,1.832,1.832l-2.85,13.213h-4.614l3.257-15.045H160.217z M161.1,0.66 c1.538,0,2.171,0.611,1.9,1.832l-0.272,1.111h-4.614l0.611-2.943H161.1z"></path> <path fill="#DEA937" d="M164.137,20.008c-1.719-0.129-2.375-1.027-1.968-2.693l3.596-16.656h2.375 c0.588,0,1.075,0.185,1.459,0.555c0.384,0.37,0.509,0.814,0.373,1.332l-0.475,2.387h2.782l-0.204,0.833 c-0.136,0.555-0.463,1.009-0.984,1.36c-0.52,0.352-1.097,0.527-1.73,0.527h-0.475l-1.832,8.55 c-0.136,0.629,0.249,0.944,1.154,0.944h1.425l-0.611,2.887C167.485,20.147,165.856,20.137,164.137,20.008z"></path> <path fill="#DEA937" d="M188.549,12.541c-1.131,5.182-4.478,7.773-10.043,7.773s-7.781-2.591-6.65-7.773 c1.086-5.218,4.41-7.828,9.975-7.828S189.635,7.322,188.549,12.541z M176.539,12.541c-0.588,2.924,0.294,4.386,2.646,4.386 s3.868-1.499,4.546-4.497c0.633-2.924-0.226-4.386-2.579-4.386C178.71,8.044,177.172,9.543,176.539,12.541z"></path> <path fill="#DEA937" d="M194.437,15.039c-0.136,0.777,0.068,1.332,0.611,1.666c0.497,0.37,1.38,0.555,2.646,0.555 c1.945,0,3.031-0.481,3.257-1.443c0.181-0.777-1.267-1.388-4.343-1.832c-3.936-0.592-5.677-2.072-5.225-4.441 c0.317-1.48,1.221-2.665,2.714-3.553c1.447-0.814,3.325-1.24,5.632-1.277c2.352,0,4.139,0.426,5.361,1.277 c1.176,0.888,1.651,2.11,1.425,3.664h-2.918c-1.086-0.037-1.696-0.352-1.832-0.944c-0.181-0.666-1.041-0.999-2.579-0.999 c-1.81,0-2.805,0.389-2.986,1.166c-0.181,0.777,0.905,1.351,3.257,1.721c2.986,0.518,4.886,1.166,5.7,1.943 c0.724,0.74,0.973,1.629,0.746,2.665c-0.362,1.666-1.357,2.924-2.986,3.775c-1.583,0.851-3.755,1.277-6.514,1.277 c-2.579,0-4.411-0.444-5.496-1.332c-1.221-0.851-1.629-2.147-1.221-3.886H194.437z"></path> </g> </g> </svg> 